HIERARCHY
ROOT hip
{
  OFFSET 0 0 0
  CHANNELS 6 Xposition Yposition Zposition Zrotation Yrotation Xrotation
  JOINT abdomen
  {
    OFFSET 0 20.6881 -0.73152
    CHANNELS 3 Zrotation Xrotation Yrotation
    JOINT chest
    {
      OFFSET 0 11.7043 -0.48768
      CHANNELS 3 Zrotation Xrotation Yrotation
      JOINT neck
      {
        OFFSET 0 22.1894 -2.19456
        CHANNELS 3 Zrotation Xrotation Yrotation
        JOINT head
        {
          OFFSET -0.24384 7.07133 1.2192
          CHANNELS 3 Zrotation Xrotation Yrotation
          JOINT leftEye
          {
            OFFSET 4.14528 8.04674 8.04672
            CHANNELS 3 Zrotation Xrotation Yrotation
            End Site
            {
              OFFSET 1 0 0
            }
          }
          JOINT rightEye
          {
            OFFSET -3.6576 8.04674 8.04672
            CHANNELS 3 Zrotation Xrotation Yrotation
            End Site
            {
              OFFSET 1 0 0
            }
          }
        }
      }
      JOINT rCollar
      {
        OFFSET -2.68224 19.2634 -4.8768
        CHANNELS 3 Zrotation Xrotation Yrotation
        JOINT rShldr
        {
          OFFSET -8.77824 -1.95073 1.46304
          CHANNELS 3 Zrotation Xrotation Yrotation
          JOINT rForeArm
          {
            OFFSET -28.1742 -1.7115 0.48768
            CHANNELS 3 Zrotation Xrotation Yrotation
            JOINT rHand
            {
              OFFSET -22.5879 0.773209 7.07136
              CHANNELS 3 Zrotation Xrotation Yrotation
              JOINT rThumb1
              {
                OFFSET -1.2192 -0.487915 3.41376
                CHANNELS 3 Zrotation Xrotation Yrotation
                JOINT rThumb2
                {
                  OFFSET -3.37035 -0.52449 3.41376
                  CHANNELS 3 Zrotation Xrotation Yrotation
                  End Site
                  {
                    OFFSET -1.78271 -1.18214 1.43049
                  }
                }
              }
              JOINT rIndex1
              {
                OFFSET -7.75947 0.938293 5.60832
                CHANNELS 3 Zrotation Xrotation Yrotation
                JOINT rIndex2
                {
                  OFFSET -2.54057 -0.884171 1.56538
                  CHANNELS 3 Zrotation Xrotation Yrotation
                  End Site
                  {
                    OFFSET -1.62519 -0.234802 1.16502
                  }
                }
              }
              JOINT rMid1
              {
                OFFSET -8.24714 1.18213 3.41376
                CHANNELS 3 Zrotation Xrotation Yrotation
                JOINT rMid2
                {
                  OFFSET -3.10165 -0.590103 1.0647
                  CHANNELS 3 Zrotation Xrotation Yrotation
                  End Site
                  {
                    OFFSET -2.48547 -0.328903 0.83742
                  }
                }
              }
              JOINT rRing1
              {
                OFFSET -8.82822 0.546677 1.51678
                CHANNELS 3 Zrotation Xrotation Yrotation
                JOINT rRing2
                {
                  OFFSET -2.60934 -0.819778 -0.0198488
                  CHANNELS 3 Zrotation Xrotation Yrotation
                  End Site
                  {
                    OFFSET -2.33842 -0.294052 0.168128
                  }
                }
              }
              JOINT rPinky1
              {
                OFFSET -8.27202 -0.0477905 -0.4584
                CHANNELS 3 Zrotation Xrotation Yrotation
                JOINT rPinky2
                {
                  OFFSET -1.82734 -0.647385 -0.700984
                  CHANNELS 3 Zrotation Xrotation Yrotation
                  End Site
                  {
                    OFFSET -1.69225 -0.51767 -0.607171
                  }
                }
              }
            }
          }
        }
      }
      JOINT lCollar
      {
        OFFSET 2.68224 19.2634 -4.8768
        CHANNELS 3 Zrotation Xrotation Yrotation
        JOINT lShldr
        {
          OFFSET 8.77824 -1.95073 1.46304
          CHANNELS 3 Zrotation Xrotation Yrotation
          JOINT lForeArm
          {
            OFFSET 28.1742 -1.7115 0.48768
            CHANNELS 3 Zrotation Xrotation Yrotation
            JOINT lHand
            {
              OFFSET 22.5879 0.773209 7.07136
              CHANNELS 3 Zrotation Xrotation Yrotation
              JOINT lThumb1
              {
                OFFSET 1.2192 -0.487915 3.41376
                CHANNELS 3 Zrotation Xrotation Yrotation
                JOINT lThumb2
                {
                  OFFSET 3.37035 -0.52449 3.41376
                  CHANNELS 3 Zrotation Xrotation Yrotation
                  End Site
                  {
                    OFFSET 1.78271 -1.18214 1.43049
                  }
                }
              }
              JOINT lIndex1
              {
                OFFSET 7.75947 0.938293 5.60832
                CHANNELS 3 Zrotation Xrotation Yrotation
                JOINT lIndex2
                {
                  OFFSET 2.54057 -0.884171 1.56538
                  CHANNELS 3 Zrotation Xrotation Yrotation
                  End Site
                  {
                    OFFSET 1.62519 -0.234802 1.16502
                  }
                }
              }
              JOINT lMid1
              {
                OFFSET 8.24714 1.18213 3.41376
                CHANNELS 3 Zrotation Xrotation Yrotation
                JOINT lMid2
                {
                  OFFSET 3.10165 -0.590103 1.0647
                  CHANNELS 3 Zrotation Xrotation Yrotation
                  End Site
                  {
                    OFFSET 2.48547 -0.328903 0.83742
                  }
                }
              }
              JOINT lRing1
              {
                OFFSET 8.82822 0.546677 1.51678
                CHANNELS 3 Zrotation Xrotation Yrotation
                JOINT lRing2
                {
                  OFFSET 2.60934 -0.819778 -0.0198488
                  CHANNELS 3 Zrotation Xrotation Yrotation
                  End Site
                  {
                    OFFSET 2.33842 -0.294052 0.168128
                  }
                }
              }
              JOINT lPinky1
              {
                OFFSET 8.27202 -0.0477905 -0.4584
                CHANNELS 3 Zrotation Xrotation Yrotation
                JOINT lPinky2
                {
                  OFFSET 1.82734 -0.647385 -0.700984
                  CHANNELS 3 Zrotation Xrotation Yrotation
                  End Site
                  {
                    OFFSET 1.69225 -0.51767 -0.607171
                  }
                }
              }
            }
          }
        }
      }
    }
  }
  JOINT rButtock
  {
    OFFSET -8.77824 4.35084 1.2192
    CHANNELS 3 Zrotation Xrotation Yrotation
    JOINT rThigh
    {
      OFFSET 0 -1.70687 -2.19456
      CHANNELS 3 Zrotation Xrotation Yrotation
      JOINT rShin
      {
        OFFSET 0 -36.8199 0.73152
        CHANNELS 3 Zrotation Xrotation Yrotation
        JOINT rFoot
        {
          OFFSET 0.73152 -45.1104 -5.12064
          CHANNELS 3 Zrotation Xrotation Yrotation
          End Site
          {
            OFFSET -1.1221 -3.69964 12.103
          }
        }
      }
    }
  }
  JOINT lButtock
  {
    OFFSET 8.77824 4.35084 1.2192
    CHANNELS 3 Zrotation Xrotation Yrotation
    JOINT lThigh
    {
      OFFSET 0 -1.70687 -2.19456
      CHANNELS 3 Zrotation Xrotation Yrotation
      JOINT lShin
      {
        OFFSET 0 -36.8199 0.73152
        CHANNELS 3 Zrotation Xrotation Yrotation
        JOINT lFoot
        {
          OFFSET -0.73152 -45.1104 -5.12064
          CHANNELS 3 Zrotation Xrotation Yrotation
          End Site
          {
            OFFSET 1.1221 -3.69964 12.103
          }
        }
      }
    }
  }
}
MOTION
Frames:	5
Frame Time:	0.00833333
102.88199 79.62099 -28.385754 1.2385619 29.961517 5.1526976 -2.5578978 -3.1204703 -3.2382405 -1.5403372 -0.022677097 -1.0151743 -2.9269624 6.933256 -4.903861 0.22857432 -11.267405 -7.7546763 -0.009165607 -0.0728316 -0.07398066 -0.019278325 -0.06416648 0.06126572 0.06464009 0.07923238 0.035366904 67.088974 15.370348 21.328913 -28.060432 -31.602072 70.01395 -0.9951616 -27.13996 -4.0253615 0.043389287 -0.075836495 0.006543189 0.035413776 -0.012293833 -0.02824082 -0.00010227221 0.029796304 -0.019041907 7.707034 5.5435824 0.44281122 -0.022217302 0.019259518 -0.004044248 2.8777938 0.94512737 0.18184337 0.013222785 -0.037191562 -0.019266218 10.233256 0.6516943 0.025495235 -0.024695072 0.080337204 -0.04420249 2.2592494 -0.775788 -0.24849057 0.025066612 -0.017002149 -0.014697199 -43.511692 62.571648 -48.413483 28.182447 -36.503075 -77.97408 2.3904371 -39.56237 6.750017 0.02399381 -0.048428513 0.010223216 0.0042254436 -0.0717059 -0.02840833 0.011363275 -0.026848722 -0.021075752 -7.7709894 5.4830613 -0.46905836 0.07548718 -0.04020601 -0.033144426 -2.8630092 0.95710814 -0.08815247 0.047029432 -0.0027411007 -0.010444681 -10.34605 0.70817876 -0.039541624 -0.0067428523 0.040837258 0.053075977 -2.190333 -0.7574836 0.21566494 -0.02205623 -0.029400794 0.021724805 -14.833744 -36.679836 -10.593803 -1.0833561 51.567787 1.4525001 -2.0431597 2.7480059 -16.095505 0.034454126 0.062205598 -0.046188172 5.345353 -25.586119 15.35709 0.0027204624 33.313454 -0.8666645 7.721928 -14.988498 18.611744
104.269775 79.53415 -28.346592 1.8588911 28.736069 6.2730727 -1.6067053 -2.8058856 -4.037472 -1.1688986 0.15618132 -1.1845949 -3.174335 7.320918 -5.5977397 -0.33905578 -10.7793455 -9.618309 0.006112405 -0.07190408 -0.050493956 -0.02502025 -0.055582937 0.062796585 0.05487906 0.060654577 0.041309603 66.33996 11.61529 19.192225 -28.20422 -33.590496 73.269905 -1.5253229 -32.98554 -5.111956 0.0535845 -0.088612564 0.0031137345 0.014325956 -0.016733246 -0.03405781 0.006903993 0.03219204 -0.010903651 7.7166986 5.559579 0.42293152 -0.020024855 0.010087662 0.007635912 2.8695536 0.94800705 0.1986014 0.017953683 -0.035786856 -0.028722778 10.246735 0.67587805 0.016063841 0.0039319475 0.082329035 -0.06312024 2.2363756 -0.78115016 -0.2663074 0.014253042 -0.004769582 0.008221257 -44.613453 62.648266 -46.7519 28.196064 -37.943443 -80.33298 2.6863499 -41.04852 7.0485125 0.0049397554 -0.06580037 -0.02017314 -0.004361907 -0.05626397 -0.04488741 0.006639049 -0.04284299 -0.027016371 -7.7768383 5.4900985 -0.43488598 0.059846833 -0.043138567 -0.028588893 -2.8501742 0.94616866 -0.05588488 0.039396074 0.013686179 0.006521843 -10.338775 0.69264024 -0.04021894 -0.030503696 0.061555695 0.030439526 -2.1691613 -0.7748081 0.22676814 -0.0037323143 -0.03153334 0.018518455 -13.732891 -36.855072 -11.253658 -0.8652624 48.45586 1.2794027 -2.931401 -0.09466354 -17.937122 0.035998058 0.0543012 -0.05648354 5.7144995 -26.323786 14.616377 -0.03619179 34.452785 -0.88424116 7.19638 -14.201656 17.987509
106.031006 79.83867 -27.319902 2.0709407 26.75613 7.370992 -0.2277372 -3.0310469 -4.3758926 -0.630511 0.63582104 -1.2451956 -3.1540067 7.70653 -5.8134356 -1.0113392 -9.988296 -10.747136 0.0071250335 -0.052655693 -0.023574322 -0.023825468 -0.041012753 0.05829711 0.047597013 0.042430054 0.042418692 67.0071 7.909298 16.589418 -28.252268 -34.863064 75.35483 -1.8322762 -35.66138 -5.6846457 0.05804246 -0.09328975 -0.007262691 -0.0073554805 -0.014111177 -0.038770966 0.015924035 0.026396072 0.015507435 7.7249384 5.575304 0.40414736 -0.01618901 0.0018491934 0.014547422 2.8684907 0.95800656 0.18650071 0.01866256 -0.030309234 -0.02604419 10.25532 0.7041741 -0.008974406 0.026834762 0.088742755 -0.06543513 2.2168899 -0.79889935 -0.2800605 -0.0060176603 0.013433014 0.023141716 -47.82134 60.92665 -40.98489 28.119022 -39.63618 -83.16516 3.239523 -43.675285 7.6872835 -0.00500846 -0.071509674 -0.04812347 -0.008069016 -0.03928791 -0.056643277 0.00093253225 -0.044166725 -0.039558046 -7.782288 5.4950213 -0.3912721 0.04433212 -0.036225863 -0.016094392 -2.8527687 0.9325538 -0.03612101 0.049205158 0.028934628 0.01210748 -10.319389 0.674916 -0.036953967 -0.061120763 0.07536851 0.00096546765 -2.1515753 -0.7767932 0.23665708 0.02755865 -0.032282278 0.007852624 -11.373318 -36.267025 -9.640104 -0.51611847 42.582897 0.90696925 -3.8759255 -3.0878785 -19.567339 0.033016175 0.03830385 -0.059591584 6.325368 -25.970448 13.204776 0.0067453114 35.068718 -0.92600554 7.0086765 -13.535386 18.217077
108.009 80.32067 -25.47681 1.6061769 24.104118 8.059628 1.2733526 -3.5580118 -4.7622933 -0.28882918 1.2352868 -1.3438932 -3.0111945 8.194353 -5.7754874 -1.4539928 -9.414622 -11.199739 -0.0008339891 -0.028574545 -0.001805773 -0.01687102 -0.023479668 0.055983588 0.04944633 0.028219916 0.04108527 68.42893 4.851369 14.052425 -28.273354 -35.510044 76.3867 -1.8808091 -36.004475 -5.7908435 0.057094876 -0.085954525 -0.014524008 -0.026802992 -0.012362093 -0.04131279 0.02512284 0.017025424 0.041634347 7.7226377 5.587503 0.40126976 -0.01081156 -0.00069797586 0.010707909 2.8745654 0.9659891 0.16605464 0.01947617 -0.020057017 -0.01909487 10.2562275 0.72464514 -0.039823078 0.03604238 0.09531113 -0.05201816 2.210493 -0.81558603 -0.2822906 -0.023084246 0.028789774 0.031744916 -51.511814 57.961773 -33.324913 27.89897 -41.367107 -86.19404 3.9305806 -46.63161 8.507658 -0.009943283 -0.067208655 -0.07081761 -0.007548372 -0.028664235 -0.06340308 -0.0024130277 -0.037605453 -0.04558479 -7.7800846 5.4986715 -0.35707697 0.04054874 -0.024048721 -0.00097476493 -2.8704953 0.9199054 -0.030506738 0.060358953 0.03638457 0.016881526 -10.298597 0.65244097 -0.027937232 -0.08211879 0.079864964 -0.023869157 -2.1458232 -0.76548105 0.23908812 0.05808612 -0.03259675 -0.0019779943 -8.626848 -35.390854 -7.6012163 -0.27500457 37.83663 0.5973574 -4.480387 -5.0079083 -20.754879 0.020680357 0.022732005 -0.05720337 7.6733303 -25.255568 12.422504 0.08785646 36.750935 -0.9443281 6.982794 -13.076481 18.779205
110.118286 80.83193 -23.065422 0.71110326 21.962067 8.157989 2.608234 -4.1000643 -5.4651127 -0.14467838 1.8558855 -1.5555024 -2.9653769 8.604186 -5.738384 -1.697853 -8.883913 -11.397391 -0.008750463 -0.008306069 0.012999024 -0.010701406 -0.009222394 0.06278815 0.05135715 0.020352963 0.034578953 70.03393 2.592835 11.157647 -28.28343 -36.0779 77.27945 -1.8104295 -35.390297 -5.704107 0.049066164 -0.073565975 -0.01739734 -0.04689826 -0.016635325 -0.03945287 0.033911493 0.009516928 0.05685172 7.716917 5.587677 0.41419208 -0.0032329932 0.0014927298 -0.0002495314 2.8845546 0.97029394 0.15310705 0.019909274 -0.010270659 -0.018578306 10.2517185 0.73578274 -0.06149953 0.031643726 0.09885491 -0.03495527 2.2126067 -0.82786554 -0.2746578 -0.030737907 0.033659033 0.029623697 -54.43445 54.20861 -26.730385 27.610939 -42.69009 -88.63016 4.7083483 -49.626556 9.459865 -0.011768755 -0.058530055 -0.08218759 -0.008370878 -0.025115391 -0.06416306 -0.0016210355 -0.028007155 -0.04479429 -7.7685695 5.5002484 -0.3469172 0.049175147 -0.01478622 0.01144314 -2.8938878 0.91214365 -0.03455597 0.056974795 0.038865935 0.026724927 -10.28674 0.62864125 -0.023180831 -0.081103265 0.072498605 -0.038446657 -2.1471317 -0.7492586 0.23498653 0.076064035 -0.026788807 -0.004963638 -6.5868683 -34.606644 -7.0094657 -0.16509172 35.997772 0.41404164 -4.768798 -5.9757247 -21.58771 0.0021524467 0.017020226 -0.048823226 9.443093 -24.219501 12.347554 0.16195671 39.142555 -0.9144601 6.7988067 -13.21298 18.631218
